<?xml version="1.0" standalone="no"?>
<!DOCTYPE svg PUBLIC "-//W3C//DTD SVG 20010904//EN"
 "http://www.w3.org/TR/2001/REC-SVG-20010904/DTD/svg10.dtd">
<svg version="1.0" xmlns="http://www.w3.org/2000/svg"
 width="478.000000pt" height="478.000000pt" viewBox="0 0 478.000000 478.000000"
 preserveAspectRatio="xMidYMid meet">
<metadata>
Created by potrace 1.14, written by Peter Selinger 2001-2017
</metadata>
<g transform="translate(0.000000,478.000000) scale(0.100000,-0.100000)"
fill="#000000" stroke="none">
<path d="M2209 4776 c-2 -2 -37 -7 -77 -10 -40 -4 -78 -9 -85 -11 -7 -2 -30
-6 -52 -9 -138 -18 -418 -100 -555 -162 -411 -188 -724 -440 -985 -794 -192
-260 -354 -630 -408 -930 -5 -26 -14 -75 -22 -125 -26 -156 -27 -608 -1 -687
3 -7 7 -31 10 -53 37 -272 172 -625 339 -884 34 -53 65 -100 69 -106 118 -155
175 -220 288 -330 235 -228 473 -380 815 -520 69 -28 258 -84 340 -101 31 -6
185 -33 230 -40 66 -10 425 -13 500 -4 376 44 636 127 960 305 38 21 74 43 80
47 5 5 33 23 60 40 28 18 52 35 55 38 3 3 33 26 68 51 206 152 424 390 575
629 100 158 240 463 262 571 2 9 12 47 23 85 12 38 23 83 25 101 3 17 7 35 10
40 2 4 8 32 11 62 4 29 8 57 11 61 26 42 26 561 0 692 -3 16 -7 40 -9 55 -32
251 -159 585 -331 872 -20 33 -144 207 -162 226 -10 12 -43 50 -73 85 -60 71
-192 199 -266 260 -220 180 -459 316 -714 408 -90 32 -145 50 -176 57 -187 43
-238 54 -289 60 -32 4 -68 9 -80 12 -22 6 -441 14 -446 9z"/>
</g>
</svg>
